<svg width="882" height="429" viewBox="0 0 882 429" fill="none" xmlns="http://www.w3.org/2000/svg">
<g id="Shape-1">
<path id="Shape" opacity="0.05" fill-rule="evenodd" clip-rule="evenodd" d="M757.215 358.097L137.703 192.099C129.411 189.877 120.564 192.253 114.501 198.331L40.5408 272.464C34.4992 278.52 32.1375 287.334 34.3418 295.599L61.3259 396.781C63.538 405.076 70.0118 411.557 78.3038 413.779L698.99 580.091L757.215 358.097Z" fill="url(#paint0_linear_1_1161)"/>
<path id="Shape_2" opacity="0.05" fill-rule="evenodd" clip-rule="evenodd" d="M880.215 187.097L260.703 21.0989C252.411 18.8771 243.564 21.2533 237.501 27.3305L163.541 101.464C157.499 107.52 155.138 116.334 157.342 124.599L184.326 225.781C186.538 234.076 193.012 240.557 201.304 242.779L821.99 409.091L880.215 187.097Z" fill="url(#paint1_linear_1_1161)"/>
</g>
<defs>
<linearGradient id="paint0_linear_1_1161" x1="60.4012" y1="171.703" x2="756.45" y2="358.208" gradientUnits="userSpaceOnUse">
<stop stop-color="white"/>
<stop offset="1" stop-color="white" stop-opacity="0.01"/>
</linearGradient>
<linearGradient id="paint1_linear_1_1161" x1="183.401" y1="0.702718" x2="879.45" y2="187.208" gradientUnits="userSpaceOnUse">
<stop stop-color="white"/>
<stop offset="1" stop-color="white" stop-opacity="0.01"/>
</linearGradient>
</defs>
</svg>
