<svg width="935" height="611" viewBox="0 0 935 611" fill="none" xmlns="http://www.w3.org/2000/svg">
<g id="Shape-1">
<path id="Shape" opacity="0.05" fill-rule="evenodd" clip-rule="evenodd" d="M1412.11 376.431L240.457 199.995C233.887 199.006 226.426 200.547 219.85 204.251L77.729 284.311C65.2265 291.354 59.0572 304.293 63.6188 313.906L115.471 423.175C117.871 428.231 122.961 431.662 129.531 432.652L1303.37 609.417L1412.11 376.431Z" fill="url(#paint0_linear_1_1234)"/>
<path id="Shape_2" opacity="0.05" fill-rule="evenodd" clip-rule="evenodd" d="M1641.81 196.964L470.156 20.5283C463.586 19.539 456.125 21.08 449.549 24.7843L307.428 104.844C294.926 111.887 288.756 124.826 293.318 134.439L345.171 243.708C347.57 248.764 352.66 252.195 359.23 253.185L1533.07 429.95L1641.81 196.964Z" fill="url(#paint1_linear_1_1234)"/>
</g>
<defs>
<linearGradient id="paint0_linear_1_1234" x1="110.828" y1="180.807" x2="1245.97" y2="722.018" gradientUnits="userSpaceOnUse">
<stop stop-color="white"/>
<stop offset="1" stop-color="white" stop-opacity="0.01"/>
</linearGradient>
<linearGradient id="paint1_linear_1_1234" x1="340.528" y1="1.34036" x2="1475.66" y2="542.551" gradientUnits="userSpaceOnUse">
<stop stop-color="white"/>
<stop offset="1" stop-color="white" stop-opacity="0.01"/>
</linearGradient>
</defs>
</svg>
